<svg width="575" height="575" viewBox="0 0 575 575" fill="none" xmlns="http://www.w3.org/2000/svg">
<rect width="575" height="575" fill="#FDB004"/>
<path d="M244.669 176.887L134.463 158.557L331.799 376.367H444.161L244.669 176.887Z" fill="#CCF3FF"/>
<path d="M318.212 82L244.669 176.887L444.161 376.367L497 281.048L318.212 82Z" fill="#56ABD6"/>
<path d="M134.463 158.557L51 238.564L296.214 465L331.799 376.367L134.463 158.557Z" fill="#56ABD6"/>
<path d="M134.463 158.557L51 238.564L296.214 465L331.799 376.367M134.463 158.557L244.669 176.887M134.463 158.557L331.799 376.367M244.669 176.887L318.212 82L497 281.048L444.161 376.367M244.669 176.887L444.161 376.367M444.161 376.367H331.799" stroke="#CCF3FF" stroke-width="4"/>
<path d="M350.647 203.419C349.577 204.448 348.509 205.594 347.442 206.855C346.216 208.305 345.128 209.71 344.177 211.07C343.841 211.231 343.41 211.088 342.882 210.642C342.166 210.036 341.649 209.568 341.33 209.237C341.002 208.899 340.788 208.626 340.688 208.418C340.586 208.194 340.566 207.954 340.628 207.699C340.697 207.436 340.778 207.159 340.87 206.868C340.97 206.569 341.038 206.089 341.074 205.429C341.11 204.77 341.063 204.008 340.933 203.146C340.92 203.089 340.838 202.46 340.688 201.258C340.529 200.049 340.37 198.994 340.211 198.093C340.06 197.182 339.874 196.25 339.653 195.295C338.963 195.295 337.701 195.272 335.868 195.225C334.033 195.162 332.748 195.112 332.013 195.073C331.546 195.046 331.047 195.154 330.519 195.398C329.981 195.634 329.537 195.888 329.185 196.158C328.825 196.421 328.45 196.61 328.06 196.726C327.67 196.825 327.336 196.758 327.058 196.523C326.253 195.842 325.632 195.279 325.196 194.833C324.759 194.387 324.497 194.089 324.41 193.938C324.322 193.787 324.254 193.614 324.204 193.419C324.95 192.791 326.628 190.934 329.239 187.847C331.259 185.457 332.638 183.7 333.376 182.574C333.579 182.515 334.119 182.757 334.996 183.299C335.88 183.832 336.6 184.333 337.154 184.803C337.289 184.916 337.336 185.132 337.296 185.452C337.256 185.771 337.326 186.006 337.505 186.158C337.576 186.218 337.681 186.276 337.818 186.331C337.947 186.379 338.109 186.423 338.304 186.465C338.506 186.498 338.7 186.532 338.886 186.566C339.063 186.593 339.29 186.624 339.567 186.659C339.843 186.677 340.061 186.701 340.222 186.729C340.381 186.741 340.607 186.763 340.901 186.797C341.193 186.814 341.385 186.823 341.477 186.824C341.3 185.907 341.089 185.014 340.841 184.145C340.594 183.276 340.412 182.792 340.296 182.694C340.188 182.603 340.054 182.589 339.893 182.653C339.723 182.709 339.555 182.789 339.39 182.894C339.224 183 339.002 183.035 338.725 183C338.439 182.957 338.139 182.804 337.826 182.539C336.367 181.305 335.682 180.373 335.771 179.742C336.464 179.177 337.487 178.093 338.842 176.492C340.348 174.711 341.481 173.244 342.241 172.091C342.55 171.908 343.044 172.103 343.724 172.678C344.011 172.921 344.221 173.098 344.355 173.212C344.48 173.318 344.647 173.466 344.854 173.657C345.061 173.847 345.206 173.993 345.29 174.094C345.371 174.179 345.469 174.3 345.582 174.456C345.702 174.604 345.775 174.727 345.8 174.825C345.824 174.923 345.851 175.037 345.878 175.168C345.906 175.298 345.9 175.424 345.86 175.543C345.827 175.654 345.771 175.775 345.691 175.907C345.56 176.134 345.456 176.33 345.378 176.494C345.3 176.659 345.222 176.823 345.145 176.988C345.075 177.143 345.028 177.334 345.006 177.56C344.982 177.77 344.956 177.964 344.929 178.141C344.903 178.317 344.904 178.579 344.933 178.926C344.953 179.265 344.97 179.572 344.984 179.845C345.007 180.109 345.049 180.521 345.113 181.081C345.184 181.633 345.246 182.13 345.3 182.575C345.361 183.01 345.444 183.656 345.549 184.512C345.662 185.359 345.76 186.133 345.843 186.833C346.765 186.922 349.403 186.997 353.757 187.057C354.485 187.104 355.14 187.082 355.723 186.992C356.305 186.902 356.749 186.786 357.053 186.644C357.348 186.495 357.641 186.366 357.931 186.259C358.229 186.142 358.498 186.078 358.738 186.066C358.979 186.055 359.29 186.149 359.673 186.35C360.055 186.551 360.524 186.886 361.079 187.355C361.383 187.612 361.616 187.817 361.779 187.97C361.941 188.123 362.105 188.338 362.269 188.615C362.434 188.892 362.506 189.161 362.486 189.42C361.364 190.512 359.686 192.378 357.454 195.017C355.494 197.335 354.133 199.062 353.371 200.198C353.069 200.265 352.539 200.093 351.782 199.682C351.023 199.255 350.46 198.886 350.093 198.576C349.797 198.326 349.622 198.071 349.567 197.809C349.52 197.539 349.547 197.316 349.648 197.142C349.741 196.959 349.805 196.775 349.839 196.589C349.872 196.387 349.817 196.225 349.674 196.104C349.415 195.885 348.831 195.713 347.922 195.59L344.293 195.145C344.316 195.226 344.395 195.577 344.53 196.197C344.666 196.818 344.798 197.406 344.927 197.96C345.055 198.498 345.191 199.028 345.334 199.548C345.485 200.059 345.605 200.352 345.695 200.428C345.847 200.557 346.025 200.592 346.228 200.533C346.438 200.466 346.638 200.374 346.828 200.259C347.018 200.143 347.282 200.113 347.619 200.168C347.964 200.214 348.328 200.399 348.713 200.725L348.834 200.827C350.14 201.932 350.745 202.796 350.647 203.419Z" fill="white"/>
<path d="M245.5 382L228.5 265M308.5 233.5C312 224 321.2 205.8 330 209" stroke="white" stroke-width="4" stroke-dasharray="8 8"/>
<path d="M232 266.272C235.238 269.475 259.38 277.035 276.4 275.881C293.42 274.728 283.029 254.099 289.35 248.013L306 236" stroke="#69BCD6" stroke-width="4" stroke-dasharray="8 8"/>
</svg>
