<svg width="810" height="188" viewBox="115 92 810 188" fill="none" xmlns="http://www.w3.org/2000/svg">
<path d="M469.505 160.57C437.485 160.57 411.525 186.53 411.525 218.55C411.525 250.57 437.485 276.53 469.505 276.53C501.525 276.53 527.485 250.57 527.485 218.55C527.485 186.53 501.525 160.57 469.505 160.57ZM469.505 237.13C459.245 237.13 450.915 228.81 450.915 218.54C450.915 208.27 459.235 199.95 469.505 199.95C479.775 199.95 488.095 208.27 488.095 218.54C488.095 228.81 479.775 237.13 469.505 237.13Z" fill="black"/>
<path d="M234.265 232.96H209.255C196.575 232.96 186.255 222.64 186.255 209.96V131.89H146.255V163.25H128.875L115.965 200.25H146.255V209.96C146.255 244.7 174.515 272.96 209.255 272.96H248.215L234.265 232.96Z" fill="black"/>
<path d="M604.695 163.19H577.485V159.68C577.485 147 587.805 136.68 600.485 136.68H613.945L627.895 96.68H600.485C565.745 96.68 537.485 124.94 537.485 159.68V273.12H577.485V200.19H591.785L604.695 163.19Z" fill="black"/>
<path d="M655.885 160.57C623.865 160.57 597.905 186.53 597.905 218.55C597.905 250.57 623.865 276.53 655.885 276.53C687.905 276.53 713.865 250.57 713.865 218.55C713.865 186.53 687.905 160.57 655.885 160.57ZM655.885 237.13C645.625 237.13 637.295 228.81 637.295 218.54C637.295 208.27 645.615 199.95 655.885 199.95C666.155 199.95 674.475 208.27 674.475 218.54C674.475 228.81 666.155 237.13 655.885 237.13Z" fill="black"/>
<path d="M875.865 273.3H835.865V221.99C835.865 188.12 863.415 160.57 897.285 160.57H918.255V200.57H897.285C885.475 200.57 875.865 210.18 875.865 221.99V273.3Z" fill="black"/>
<path d="M785.965 163.24C785.965 190.72 785.965 225 785.965 226.55C785.965 229.63 784.685 232.7 782.195 234.89C777.585 238.94 770.575 238.48 766.535 233.88C764.685 231.77 763.775 229.16 763.775 226.56C763.775 224.73 763.775 190.62 763.775 163.25H723.875V221.44C723.875 259.02 750.325 276.14 774.905 276.14C799.485 276.14 825.875 257.35 825.875 221.44V163.25H785.975L785.965 163.24Z" fill="black"/>
<path d="M375.905 163.17L359.005 211.67L341.935 163.17H300.095L280.805 214.47L262.925 163.17H220.555L220.585 163.25H196.255V200.25H233.485L258.905 273.17H301.455L320.465 222.65L338.235 273.17H379.915L418.265 163.17H375.905Z" fill="black"/>
</svg>
